<svg id="Layer_1" data-name="Layer 1" xmlns="http://www.w3.org/2000/svg" viewBox="0 0 512 512"><defs><style>.cls-1{fill:#fff;}</style></defs><path class="cls-1" d="M497.91,497.91a48.07,48.07,0,0,1-68,0L345,413.05a222.62,222.62,0,0,1-120.66,35.72C100.47,448.77,0,348.31,0,224.38S100.47,0,224.38,0,448.77,100.45,448.77,224.38a222.85,222.85,0,0,1-35.72,120.68l84.86,84.86A48,48,0,0,1,497.91,497.91ZM224.38,64.11A160.28,160.28,0,1,0,384.66,224.38,160.27,160.27,0,0,0,224.38,64.11Z" transform="translate(0 0)"/></svg>