<svg id="Layer_1" data-name="Layer 1" xmlns="http://www.w3.org/2000/svg" viewBox="0 0 2279.42 445.42"><defs><style>.cls-1{fill:#fff;}.cls-1,.cls-2,.cls-3{fill-rule:evenodd;}.cls-2{fill:#cc203c;}.cls-3{fill:#7c8982;}</style></defs><path class="cls-1" d="M351.68,1131.22c4.13-13,8.48-34-3.55-46.26-6.07-5.91-14.55-9.35-26.26-9.35-28.91,0-48.18,14.21-53.05,39.28-6.07,30.76,24.27,45.7,57.06,62.74,41.92,21.79,88.53,50.55,80.55,108.74-10.64,74.39-63.31,100.85-159.49,100.85-34.21,0-78-14.82-89-34.42-10.27-18.17-15.6-43.52-5.26-81.94l80.95-.15c-4.55,11.71-9.08,43.78,1.38,55.29,6.77,7.5,18.17,11.2,34.77,11.2,28.29,0,47.44-15.15,52.58-41.81,5.8-29.15-25.6-48.36-58.17-66.41-41.54-23.31-88-47.53-76.82-104.53,12.76-64.83,61.4-97.15,148.61-97.15,42.93,0,71,9.46,86,27.31,14.16,16.85,16.58,42.53,7.3,76.48l-77.66.13Zm427,248.8,29.89-165.48c2.3-12.36,3.69-26.12-3.1-34.34-4.13-4.87-10.53-7.24-19.43-7.24-25.65,0-32.76,19.61-36.66,40.8L718.94,1380H651.47l43.58-239.93h67l-6.06,26,5-.13c15.94-19.3,39.36-30.34,67.73-30.34,19.36,0,35.74,6.45,45,17.42,7.39,8.7,9.89,20.21,7.52,33L846,1380H778.72Zm197.54-67.64h3.42l71.62-172.27h64.5l-159,332.61H885.74L929,1384.38l-25.85-244.27h67.39Z" transform="translate(-147.12 -1027.3)"/><path class="cls-2" d="M1454.44,1108.64h-5.3l-118,269.68h-68.94l-18.09-269.68H1239L1191,1378.32h-69.65l61.54-344.77h118.3l14.62,237.86h4.65l102.22-237.86H1537.4l-61.48,344.77h-69.39l47.91-269.68Z" transform="translate(-147.12 -1027.3)"/><path class="cls-3" d="M1650.27,1355.08l-3.88.39c-16.92,20.08-37.76,29.55-66.21,29.55-19.35,0-35.82-6.18-45.09-17.24-7.2-8.76-10-20.13-7.45-33l35.09-194.64h68.14l-30.75,167.07c-2.18,12-3.54,25.55,3.09,33.51,4,4.74,10.53,7.16,19.63,7.16,25.67,0,32.7-19.14,36.5-39.75l30.17-168h68.11L1722,1333.82a407.2,407.2,0,0,0-5.26,46.2h-70.09l3.59-24.94Zm245.92-147.69c6-13,3.43-27.26-1.51-32.32-4.66-5.26-12-6-19.16-6-16.93,0-28.55,10.27-31.79,28.24s17.76,27.39,42,38.17c34,15.46,72.29,32.91,64.24,77-7.76,43.39-51.35,72.53-108.07,72.53-41.94,0-66.09-6.71-78.14-22.24-10.18-12.7-12.11-31.66-5.85-57.79h67c-2.94,9.2-5.65,21.38-2.36,29.36,3.83,9.27,11.4,13.48,26.4,13.48,14.29,0,30.27-8.36,33.69-27.18,4.68-25.14-20.52-36.28-47.2-48-32.5-14.4-66.09-29.09-58.71-70.23,11.48-61.92,88.82-66.79,112.37-66.79,31.13,0,55,8.74,67.21,24.53,9.4,12.18,12.11,27.79,7.12,47.21Zm200.1-172.08-10.05,54.51h-67.61l10.39-54.51Zm-18.95,104.8-43,239.92h-67.43l42.86-239.92Zm156.57,83.47c5-18,3.62-33.31-2.89-41.09-4.66-5.44-11.65-8-22.37-8-33.57,0-40.69,29.81-49.57,78.53-9.89,53.9-10.18,75.57-1.44,86,4.15,5.09,10.66,7.32,20.72,7.32,29.44,0,44.13-33.83,44.63-53.12h67.29c-7.17,57.06-50,91.81-119.87,91.81-35.16,0-58.6-7.55-71.81-23.44-18.29-21.77-16.4-57.18-7.9-103.85,11.72-64.31,30.09-122.11,125.85-122.11,36.06,0,61.23,8.37,75,24.94,12.23,14.48,16.32,34.94,11.25,63h-68.86Z" transform="translate(-147.12 -1027.3)"/><path class="cls-1" d="M436.06,1257.76c11.59-64.32,30-122.11,125.86-122.11,35.34,0,59,7.82,72.46,23.95,18.83,22.58,15.08,60,8.36,97.29-15,83.11-39.81,128.14-127,128.14-35.29,0-58.64-7.55-71.88-23.44-18.3-21.76-16.32-57.18-7.83-103.83Zm139.73-3.83c6.2-34.36,9.74-59.38-.13-71.44-4.6-5.44-11.71-8-21.71-8-33.56,0-40.62,29.81-49.63,78.53-9.82,53.9-10.08,75.57-1.46,86,4.17,5.09,10.68,7.32,20.81,7.32,28.76,0,38.56-17.24,52.12-92.41Z" transform="translate(-147.12 -1027.3)"/><path class="cls-3" d="M2334.64,1341.59h-18.5v-5.39h43.5v5.39H2341v38.32h-6.32Zm39.81-.78h-.13v39.1H2368V1336.2h10.18l19.08,38.36,19.3-38.36h10v43.71h-6.21v-39.1h-.12l-19.56,39.1H2394l-19.56-39.1Z" transform="translate(-147.12 -1027.3)"/></svg>